PathFileType	4	(X/Y/Z)	Patient4_TMGait_0pt2_01_left_23.trc.trc
DataRate	CameraRate	NumFrames	NumMarkers	Units	OrigDataRate	OrigDataStartFrame	OrigNumFrames
44.025157232704	44.025157232704	4	33	mm	44.025157232704	1	       141
Frame#	Time	Sacral			L.Shoulder			Chest			R.Shoulder			Neck			R.ASIS			L.ASIS			R.Thigh.Superior			R.Thigh.Lateral			R.Thigh.Inferior			R.Patella			L.Thigh.Superior			L.Thigh.Lateral			L.Thigh.Inferior			L.Patella			L.Shank.Superior			L.Shank.Lateral			L.Shank.Inferior			R.Shank.Superior			R.Shank.Lateral			R.Shank.Inferior			R.Heel			R.Midfoot.Superior			R.Midfoot.Lateral			R.Toe			L.Heel			L.Midfoot.Lateral			L.Midfoot.Superior			L.Toe			L.Elbow			L.Wrist			R.Elbow			R.Wrist			
		X1	Y1	Z1	X2	Y2	Z2	X3	Y3	Z3	X4	Y4	Z4	X5	Y5	Z5	X6	Y6	Z6	X7	Y7	Z7	X8	Y8	Z8	X9	Y9	Z9	X10	Y10	Z10	X11	Y11	Z11	X12	Y12	Z12	X13	Y13	Z13	X14	Y14	Z14	X15	Y15	Z15	X16	Y16	Z16	X17	Y17	Z17	X18	Y18	Z18	X19	Y19	Z19	X20	Y20	Z20	X21	Y21	Z21	X22	Y22	Z22	X23	Y23	Z23	X24	Y24	Z24	X25	Y25	Z25	X26	Y26	Z26	X27	Y27	Z27	X28	Y28	Z28	X29	Y29	Z29	X30	Y30	Z30	X31	Y31	Z31	X32	Y32	Z32	X33	Y33	Z33	

1	52.670000000000	829.768366692045	1001.378445020535	539.430792005733	1012.037463332526	1422.955012095564	350.530927569146	1107.447333262189	1359.119651848893	517.545800124391	1019.157911960347	1434.916800615517	687.112467718315	987.540981103580	1490.669743098469	506.238057975520	1059.996337317775	939.185160844841	660.870139738341	1045.697288464575	953.344293697550	386.249896441408	1103.599898971209	737.705104023978	614.208453037078	1023.228006736223	621.792267655742	666.764202949544	1096.204065759608	575.020449305762	580.074241061114	1095.983735046072	482.963091616464	579.204682533510	1102.803961084586	745.574951384157	408.694347493784	1030.023437209613	627.707000376626	331.387806695344	1120.800796612188	548.953853455207	390.702207852493	1118.735420092259	463.624856547650	382.899245408743	1051.435859500457	405.294604103614	369.687483970129	913.976977099597	362.327662859634	313.555536075581	900.499294216923	230.448014647629	360.192227416888	1057.294559258067	395.677060733226	582.130333206568	981.282728440608	295.703814620129	644.324243301863	1006.218884877240	201.555427887435	573.367296493351	854.338776359650	44.190763315885	550.315782126466	1028.593547030029	96.603253874759	575.441356885110	942.316132668384	38.069571229898	619.021932072970	1149.458514238429	42.791967500683	596.733349818875	710.006004880428	166.384297823530	389.531581961274	767.659652412712	118.607313520989	311.131863787263	871.949375686540	123.519020925782	333.295404233251	947.754352019087	32.240692379121	310.339651419170	1060.570978528627	1071.301428226898	232.719841576589	1246.943268687873	885.197002016591	237.776631137528	971.575786005288	1089.175561219792	816.520130329223	1044.621137905766	836.325298928844	834.052154936323	
2	52.692714285714	829.585219395117	998.901666962646	544.153353695810	1007.912242975403	1420.007914493048	351.038316795014	1105.993333377272	1357.446167246257	516.937069471522	1019.972681596194	1433.632235345511	687.554521269338	985.818169866709	1488.606074490284	506.675345421771	1061.491367002773	937.665455411822	662.708830271492	1043.980254193167	951.531626683442	388.322686258631	1105.459199879490	736.320541060908	615.104570068736	1026.030858345662	619.801054474847	667.745586070378	1098.314802567586	573.670230419384	580.174919588897	1098.274882631879	480.783328283322	579.044067022230	1107.290167471962	748.653655626104	412.209950258402	1040.453206289518	629.159932416744	333.673987188871	1133.222886080724	553.299975166647	394.162023988956	1133.473117901567	466.872145224529	385.327838363131	1064.985101352879	407.827111949241	371.965292125994	925.996638706523	368.794269117400	316.438103863801	909.712969587887	236.905415774145	362.484468344624	1058.048412713064	393.734713108498	582.011469537404	981.019391709822	294.697759861120	644.443257353886	1003.905897370726	200.522000179436	573.158070042686	849.938176039512	44.402745886956	550.372890324362	1024.242574158623	96.498697995571	575.402166824352	937.905572810866	38.077912774871	619.005083216453	1145.055815830568	42.407147125171	596.753515005400	718.796722240902	181.610124440655	393.426807410058	772.751094905992	131.252660795793	314.077905240696	877.059210346781	129.485478756003	335.258647993564	945.586089861142	30.507369625666	310.351619301715	1044.558291522133	1065.448796826169	238.590480450469	1208.582288413494	865.067537354443	242.869927423084	987.229198139738	1086.892357393142	818.022256096920	1078.186934738945	842.127046113175	831.439060228038	
3	52.715428571429	829.439079617299	996.424504732028	548.924808846023	1003.640495556601	1417.051836360749	351.565909308450	1104.529350069443	1355.749921639437	516.238704664515	1020.945688974536	1432.341678584545	687.966197091552	984.082375895536	1486.534783076461	507.118013672678	1062.990447487637	936.095125410028	664.498404716079	1042.178332428068	949.709853187981	390.363200752803	1107.274650417861	734.864393761756	615.992495338111	1028.750763139194	617.777270815310	668.692455398315	1100.349063553361	572.268526831423	580.230318933997	1100.455148496315	478.561635790741	578.807788755738	1111.664892188642	751.850065135965	415.679390298024	1050.728234675933	630.742094230632	335.992897169687	1145.550820518094	557.835128326066	397.556754796420	1148.141009531160	470.318887718522	387.732045328647	1078.526662612613	410.505298011837	374.270621535906	937.924382356103	375.126332827520	319.617072624212	919.200538728545	243.112292656055	365.001758339173	1058.676399894346	391.766679406421	581.840260471159	980.622663210470	293.680097795007	644.528534815059	1001.432726492937	199.473248024524	572.932086085765	845.354668036607	44.619207416688	550.427873926807	1019.703412155939	96.395218943998	575.360920651690	933.305528786988	38.088372339229	618.993417471472	1140.463899910390	42.030373758250	596.774740660953	727.871674641194	195.523837566554	397.797493911664	778.369393191266	143.038313255236	317.365341688643	882.818990918566	135.331175646847	337.401984118167	944.780546926280	29.094006040875	310.260132566195	1027.474197656205	1059.802323305160	244.511685767729	1168.444520238317	845.620512670906	248.287012477217	1003.708393772715	1084.843933411328	819.433057265334	1113.207037470485	849.218659560298	828.272323995805	
4	52.738142857143	829.339420030297	994.090226142167	553.581048733112	999.332420959303	1414.244357958685	352.108438771942	1103.119722561408	1354.115642760143	515.429019329134	1022.137911852651	1431.119366106963	688.310449297283	982.415055981041	1484.564740017767	507.557831669056	1064.434778545853	934.536233074761	666.113113683359	1040.296116515257	947.978611391802	392.257467686063	1108.922688134700	733.382040514391	616.800257815372	1031.207118023553	615.813451070464	669.546947222190	1102.135877638538	570.864936508143	580.213944666490	1102.326406464432	476.391810405350	578.481762221789	1115.668789288394	755.090181510989	418.930442525860	1060.313313505240	632.435253076862	338.253249568472	1157.167035963455	562.437339816132	400.734066312333	1162.049770554607	473.916143366547	390.006737355061	1091.497881587995	413.273380146190	376.507529064985	949.304189800805	380.884974226419	323.014159805981	928.855052640579	248.606834509555	367.679078254969	1059.046162230232	389.858411455385	581.608024746007	980.015013639225	292.699197964392	644.572600895872	998.805668230661	198.458810898916	572.698991396695	840.682926232686	44.836192692397	550.482767181073	1015.071333284913	96.299056275325	575.323689336725	928.613284410817	38.102636216090	618.992413439219	1135.778580482412	41.678143388593	596.796744557373	737.235327751407	206.835578920375	402.548694580690	784.779463574333	152.971282532692	320.907524384447	889.499390172928	140.647605058517	339.662381618963	946.215057038089	28.135276476735	310.010225632717	1009.568823867106	1054.761301934987	250.269410935757	1127.504430647661	827.995156337053	253.939321070246	1020.712396618036	1083.258835351003	820.642611570176	1148.817210705305	857.937270014023	824.414501925407	
